<?xml version="1.0" encoding="UTF-8" standalone="no"?><!DOCTYPE svg PUBLIC "-//W3C//DTD SVG 1.1//EN" "http://www.w3.org/Graphics/SVG/1.1/DTD/svg11.dtd"><svg viewBox="-164 24 3037 2269" version="1.1" xmlns="http://www.w3.org/2000/svg" xmlns:xlink="http://www.w3.org/1999/xlink" xml:space="preserve" xmlns:serif="http://www.serif.com/" style="fill-rule:evenodd;clip-rule:evenodd;stroke-linecap:round;stroke-linejoin:round;stroke-miterlimit:1.5;"><path d="M1841.298,1741.157c-76.589,283.124 -292.842,292.135 -292.842,292.135c0,0 67.579,-219.343 130.653,-292.135" style="fill:none;stroke:#898ce8;stroke-width:23.16px;"/><path d="M1078.696,1509.311c0,0 -1182.631,723.765 309.737,295.766l325.346,-80.92l412.391,-538.554" style="fill:none;stroke:#898ce8;stroke-width:23.16px;"/><path d="M1140.99,980.46c0,0 -725.444,347.059 -104.283,450.35c621.161,103.291 544.083,293.347 544.083,293.347" style="fill:none;stroke:#898ce8;stroke-width:23.16px;"/><path d="M1399.43,881.3c0,0 467.005,-24.79 557.685,-235.504c90.68,-210.714 -335.518,-200.706 -335.518,-200.706" style="fill:none;stroke:#898ce8;stroke-width:23.16px;"/><path d="M1259.826,444.907c38.034,92.618 72.265,141.14 8.558,128.143" style="fill:none;stroke:#898ce8;stroke-width:23.16px;"/><path d="M1282.646,479.472c0,0 48.494,-83.953 63.707,-12.083" style="fill:none;stroke:#898ce8;stroke-width:23.16px;"/><path d="M1171.396,489.869c0,0 50.166,-91.846 61.691,-12.997" style="fill:none;stroke:#898ce8;stroke-width:23.16px;"/><path d="M1102.912,312.403c0,0 21.118,412.249 175.987,349.755c154.868,-62.494 119.671,-376.166 119.671,-376.166" style="fill:none;stroke:#898ce8;stroke-width:23.16px;"/><path d="M1233.087,1294.465c0,0 -33.155,132.213 315.965,144.608c349.12,12.395 34.785,285.084 34.785,285.084" style="fill:none;stroke:#898ce8;stroke-width:23.16px;"/><path d="M1684.602,346.498c0,0 1055.409,180.21 188.146,687.052c0,0 -511.451,163.316 -188.146,247.789c323.304,84.474 -110.327,123.895 -110.327,123.895" style="fill:none;stroke:#898ce8;stroke-width:23.16px;"/><path d="M1805.17,1294.465c0,0 805.315,-593.178 906.684,-305.967c101.368,287.21 -856,735.659 -856,735.659" style="fill:none;stroke:#898ce8;stroke-width:23.16px;"/><path d="M1507.09,243.015c-13.84,120.492 -73.814,202 71.508,202" style="fill:none;stroke:#898ce8;stroke-width:23.16px;"/><path d="M1234.17,682.607c0,0 47.919,199.957 -88.876,297.853" style="fill:none;stroke:#898ce8;stroke-width:23.16px;"/><path d="M1314.5,636.752c0,0 -27.194,297.347 87.507,243.284" style="fill:none;stroke:#898ce8;stroke-width:23.16px;"/><path d="M1631.598,272.714c61.558,0 0,40.226 0,40.226l-47.76,31.075" style="fill:none;stroke:#898ce8;stroke-width:23.16px;"/><path d="M1631.598,214.714c61.558,0 0,40.226 0,40.226l-47.76,31.075" style="fill:none;stroke:#898ce8;stroke-width:23.16px;"/><path d="M1631.598,327.714c61.558,0 0,40.226 0,40.226l-47.76,31.075" style="fill:none;stroke:#898ce8;stroke-width:23.16px;"/><path d="M1530.838,214.714c9.461,-131.06 43.437,-127.037 43.437,-127.037c0,0 13.863,113.285 0,127.037" style="fill:none;stroke:#898ce8;stroke-width:23.16px;"/></svg>