<svg xmlns="http://www.w3.org/2000/svg" width="1em" height="1em" viewBox="0 0 20 20">
	<g fill="none">
		<path fill="url(#SVGhbVwOeWH)" d="M10 2a8 8 0 1 1-3.613 15.14l-.121-.065l-3.645.91a.5.5 0 0 1-.62-.441v-.082l.014-.083l.91-3.644l-.063-.12a8 8 0 0 1-.83-2.887l-.025-.382L2 10a8 8 0 0 1 8-8" />
		<path fill="url(#SVG9wquPbRT)" d="M10.5 11h-3l-.09.008a.5.5 0 0 0 0 .984L7.5 12h3l.09-.008a.5.5 0 0 0 0-.984zm2-3h-5l-.09.008a.5.5 0 0 0 0 .984L7.5 9h5l.09-.008a.5.5 0 0 0 0-.984z" />
		<defs>
			<linearGradient id="SVGhbVwOeWH" x1="2.571" x2="16.54" y1="5" y2="28.815" gradientUnits="userSpaceOnUse">
				<stop stop-color="#0fafff" />
				<stop offset="1" stop-color="#cc23d1" />
			</linearGradient>
			<linearGradient id="SVG9wquPbRT" x1="7.525" x2="7.974" y1="8.07" y2="12.414" gradientUnits="userSpaceOnUse">
				<stop stop-color="#fdfdfd" />
				<stop offset="1" stop-color="#cceaff" />
			</linearGradient>
		</defs>
	</g>
</svg>
