<svg xmlns="http://www.w3.org/2000/svg" width="1em" height="1em" viewBox="0 0 24 24">
	<g fill="none">
		<path fill="url(#SVGbChFDdLR)" d="M5 19h15.281S20 19.5 20 20s.281 1 .281 1H6a1 1 0 0 1-1-1z" />
		<path fill="url(#SVGHFzDzbfN)" d="M4 4.5A2.5 2.5 0 0 1 6.5 2H18a2.5 2.5 0 0 1 2.5 2.5v14.25a.75.75 0 0 1-.75.75H5.5a1 1 0 0 0 1 1h13.25a.75.75 0 0 1 0 1.5H6.5A2.5 2.5 0 0 1 4 19.5z" />
		<path fill="url(#SVGbhnHFbql)" d="M7 6a1 1 0 0 1 1-1h8a1 1 0 0 1 1 1v2a1 1 0 0 1-1 1H8a1 1 0 0 1-1-1z" />
		<defs>
			<linearGradient id="SVGbChFDdLR" x1="12.174" x2="12.174" y1="20.4" y2="18" gradientUnits="userSpaceOnUse">
				<stop stop-color="#9deaff" />
				<stop offset=".716" stop-color="#58aafe" />
			</linearGradient>
			<linearGradient id="SVGHFzDzbfN" x1="9.693" x2="12.681" y1="5.742" y2="27.308" gradientUnits="userSpaceOnUse">
				<stop stop-color="#20ac9d" />
				<stop offset="1" stop-color="#2052cb" />
			</linearGradient>
			<linearGradient id="SVGbhnHFbql" x1="10.449" x2="15.053" y1="4.314" y2="11.478" gradientUnits="userSpaceOnUse">
				<stop stop-color="#9ff0f9" />
				<stop offset="1" stop-color="#6ce0ff" />
			</linearGradient>
		</defs>
	</g>
</svg>
