<svg xmlns="http://www.w3.org/2000/svg" width="1em" height="1em" viewBox="0 0 24 24">
	<g fill="none">
		<path fill="url(#SVGXwjcrdMH)" d="M5 18v3a1 1 0 1 1-2 0v-3a1 1 0 1 1 2 0m5-4a1 1 0 1 0-2 0v7a1 1 0 1 0 2 0zm4 1a1 1 0 0 1 1 1v5a1 1 0 1 1-2 0v-5a1 1 0 0 1 1-1m6-4a1 1 0 1 0-2 0v10a1 1 0 1 0 2 0z" />
		<path fill="url(#SVGRVdlTdaP)" d="M17 4a1 1 0 1 1 0-2h4a1 1 0 0 1 1 1v4a1 1 0 1 1-2 0V5.414l-5.793 5.793a1 1 0 0 1-1.414 0L10 8.414l-5.293 5.293a1 1 0 0 1-1.414-1.414l6-6a1 1 0 0 1 1.414 0L13.5 9.086L18.586 4z" />
		<defs>
			<linearGradient id="SVGXwjcrdMH" x1="21.109" x2=".978" y1="9.308" y2="20.334" gradientUnits="userSpaceOnUse">
				<stop stop-color="#0094f0" />
				<stop offset="1" stop-color="#2764e7" />
			</linearGradient>
			<linearGradient id="SVGRVdlTdaP" x1="3.668" x2="22.349" y1="14" y2="1.536" gradientUnits="userSpaceOnUse">
				<stop stop-color="#22918b" />
				<stop offset="1" stop-color="#20ac9d" />
			</linearGradient>
		</defs>
	</g>
</svg>
