<svg xmlns="http://www.w3.org/2000/svg" width="1em" height="1em" viewBox="0 0 24 24">
	<g fill="none">
		<path fill="url(#SVGWAUSbcVC)" d="m11.999 15l4.501-1l4.5 1v2.752a3.25 3.25 0 0 1-3.25 3.25H12L11 18z" />
		<path fill="url(#SVGMi3jjeUD)" d="M17.751 3a3.25 3.25 0 0 1 3.245 3.066l.005.184L21 15h-9l-1-6l1.001-6z" />
		<path fill="url(#SVGKh6hwdZv)" d="M11.999 9L12 21.001H6.25a3.25 3.25 0 0 1-3.245-3.065L3 17.752V9l4.5-1z" />
		<path fill="url(#SVGS1AsMeHm)" d="M12.001 3L12 9H3V6.25A3.25 3.25 0 0 1 6.25 3z" />
		<defs>
			<linearGradient id="SVGWAUSbcVC" x1="7.666" x2="12.721" y1="11.454" y2="23.563" gradientUnits="userSpaceOnUse">
				<stop stop-color="#b0f098" />
				<stop offset="1" stop-color="#52d17c" />
			</linearGradient>
			<linearGradient id="SVGMi3jjeUD" x1="13" x2="20.103" y1="4.333" y2="13.322" gradientUnits="userSpaceOnUse">
				<stop stop-color="#52d17c" />
				<stop offset="1" stop-color="#309c61" />
			</linearGradient>
			<linearGradient id="SVGKh6hwdZv" x1="4.286" x2="11.748" y1="10.053" y2="17.199" gradientUnits="userSpaceOnUse">
				<stop stop-color="#42b870" />
				<stop offset="1" stop-color="#1a7f7c" />
			</linearGradient>
			<linearGradient id="SVGS1AsMeHm" x1="4.286" x2="6.65" y1="4.2" y2="10.322" gradientUnits="userSpaceOnUse">
				<stop stop-color="#b0f098" />
				<stop offset="1" stop-color="#64de89" />
			</linearGradient>
		</defs>
	</g>
</svg>
