<svg xmlns="http://www.w3.org/2000/svg" width="1em" height="1em" viewBox="0 0 24 24">
	<g fill="none">
		<path fill="url(#SVGJKhN0dHY)" d="m13.918 3l-3.586 2.461l-2.971 15.452q.309.085.639.087h8v-.003a2.25 2.25 0 0 0 1.844-1.122l.666-1.155l-.028.034l.008-.023l3.23-5.608c.4-.695.4-1.55 0-2.246l-3.824-6.64a2.47 2.47 0 0 0-.904-.906l-.025-.014a2.5 2.5 0 0 0-.964-.305L16 3z" />
		<path fill="url(#SVGqRk8R5MS)" fill-opacity=".5" d="m13.918 3l-3.586 2.461l-2.971 15.452q.309.085.639.087h8v-.003a2.25 2.25 0 0 0 1.844-1.122l.666-1.155l-.028.034l.008-.023l3.23-5.608c.4-.695.4-1.55 0-2.246l-3.824-6.64a2.47 2.47 0 0 0-.904-.906l-.025-.014a2.5 2.5 0 0 0-.964-.305L16 3z" />
		<path fill="url(#SVGxzzsuevZ)" d="M13.776 4.674L9.953 19.432a2 2 0 0 1-2.068 1.565a2.45 2.45 0 0 1-1.102-.326l-.025-.014a2.45 2.45 0 0 1-.9-.933l-3.614-6.627a2.25 2.25 0 0 1 .026-2.2l3.897-6.77a2.3 2.3 0 0 1 .272-.376h-.012A2.25 2.25 0 0 1 8 3.002V3h7.75a2 2 0 0 0-1.974 1.674" />
		<path fill="url(#SVGHCIvPbSu)" fill-opacity=".4" d="M13.776 4.674L9.953 19.432a2 2 0 0 1-2.068 1.565a2.45 2.45 0 0 1-1.102-.326l-.025-.014a2.45 2.45 0 0 1-.9-.933l-3.614-6.627a2.25 2.25 0 0 1 .026-2.2l3.897-6.77a2.3 2.3 0 0 1 .272-.376h-.012A2.25 2.25 0 0 1 8 3.002V3h7.75a2 2 0 0 0-1.974 1.674" />
		<path fill="url(#SVGxzzsuevZ)" d="M15.834 3.002L15.75 3h.084z" />
		<path fill="url(#SVGHCIvPbSu)" fill-opacity=".4" d="M15.834 3.002L15.75 3h.084z" />
		<defs>
			<radialGradient id="SVGJKhN0dHY" cx="0" cy="0" r="1" gradientTransform="rotate(-87.747 20.409 5.718)scale(26.2489 22.3637)" gradientUnits="userSpaceOnUse">
				<stop stop-color="#ffc470" />
				<stop offset=".251" stop-color="#ff835c" />
				<stop offset=".584" stop-color="#f24a9d" />
				<stop offset=".871" stop-color="#b339f0" />
				<stop offset="1" stop-color="#c354ff" />
			</radialGradient>
			<radialGradient id="SVGqRk8R5MS" cx="0" cy="0" r="1" gradientTransform="rotate(222.775 10.393 6.843)scale(16.2849 16.4328)" gradientUnits="userSpaceOnUse">
				<stop offset=".709" stop-color="#ffb357" stop-opacity="0" />
				<stop offset=".942" stop-color="#ffb357" />
			</radialGradient>
			<radialGradient id="SVGxzzsuevZ" cx="0" cy="0" r="1" gradientTransform="rotate(200.083 11.874 7.798)scale(25.461 21.8263)" gradientUnits="userSpaceOnUse">
				<stop offset=".222" stop-color="#4e46e2" />
				<stop offset=".578" stop-color="#625df6" />
				<stop offset=".955" stop-color="#e37dff" />
			</radialGradient>
			<linearGradient id="SVGHCIvPbSu" x1="6.196" x2="12.208" y1="10.457" y2="11.854" gradientUnits="userSpaceOnUse">
				<stop stop-color="#7563f7" stop-opacity="0" />
				<stop offset=".986" stop-color="#4916ae" />
			</linearGradient>
		</defs>
	</g>
</svg>
