<svg xmlns="http://www.w3.org/2000/svg" width="1em" height="1em" viewBox="0 0 24 24">
	<g fill="none">
		<path fill="url(#SVGbChFDdLR)" d="M5 19h14.781s-.281.5-.281 1s.281 1 .281 1H6a1 1 0 0 1-1-1z" />
		<path fill="url(#SVGHFzDzbfN)" d="M4 4.5A2.5 2.5 0 0 1 6.5 2h11A2.5 2.5 0 0 1 20 4.5v14.25a.75.75 0 0 1-.75.75H5.5a1 1 0 0 0 1 1h12.75a.75.75 0 0 1 0 1.5H6.5A2.5 2.5 0 0 1 4 19.5z" />
		<path fill="url(#SVGeRLbEKzZ)" fill-opacity=".3" d="M4 4.5A2.5 2.5 0 0 1 6.5 2h11A2.5 2.5 0 0 1 20 4.5v14.25a.75.75 0 0 1-.75.75H5.5a1 1 0 0 0 1 1h12.75a.75.75 0 0 1 0 1.5H6.5A2.5 2.5 0 0 1 4 19.5z" />
		<path fill="url(#SVG8HD2OnAX)" fill-opacity=".3" d="M4 4.5A2.5 2.5 0 0 1 6.5 2h11A2.5 2.5 0 0 1 20 4.5v14.25a.75.75 0 0 1-.75.75H5.5a1 1 0 0 0 1 1h12.75a.75.75 0 0 1 0 1.5H6.5A2.5 2.5 0 0 1 4 19.5z" />
		<path fill="url(#SVGgdsIPdMF)" fill-opacity=".9" d="M14 8a2 2 0 1 1-4 0a2 2 0 0 1 4 0m1.5 4.5c0 1.245-1 2.5-3.5 2.5s-3.5-1.25-3.5-2.5A1.5 1.5 0 0 1 10 11h4a1.5 1.5 0 0 1 1.5 1.5" />
		<defs>
			<linearGradient id="SVGbChFDdLR" x1="12.174" x2="12.174" y1="20.4" y2="18" gradientUnits="userSpaceOnUse">
				<stop stop-color="#9deaff" />
				<stop offset=".716" stop-color="#58aafe" />
			</linearGradient>
			<linearGradient id="SVGHFzDzbfN" x1="9.693" x2="12.681" y1="5.742" y2="27.308" gradientUnits="userSpaceOnUse">
				<stop stop-color="#20ac9d" />
				<stop offset="1" stop-color="#2052cb" />
			</linearGradient>
			<linearGradient id="SVGgdsIPdMF" x1="17.253" x2="1.293" y1="22.714" y2="-.051" gradientUnits="userSpaceOnUse">
				<stop stop-color="#9deaff" />
				<stop offset="1" stop-color="#fff" />
			</linearGradient>
			<radialGradient id="SVGeRLbEKzZ" cx="0" cy="0" r="1" gradientTransform="matrix(5.5 0 0 3.08944 12 13.5)" gradientUnits="userSpaceOnUse">
				<stop stop-color="#171155" />
				<stop offset="1" stop-color="#4a43cb" stop-opacity="0" />
			</radialGradient>
			<radialGradient id="SVG8HD2OnAX" cx="0" cy="0" r="1" gradientTransform="matrix(2.5 0 0 2.43216 12.5 8)" gradientUnits="userSpaceOnUse">
				<stop stop-color="#171155" />
				<stop offset="1" stop-color="#4a43cb" stop-opacity="0" />
			</radialGradient>
		</defs>
	</g>
</svg>
