<svg xmlns="http://www.w3.org/2000/svg" width="1em" height="1em" viewBox="0 0 24 24">
	<g fill="none">
		<path fill="url(#SVGwq5esEmc)" d="M11 6a1 1 0 0 1 1-1h9a1 1 0 1 1 0 2h-9a1 1 0 0 1-1-1" />
		<path fill="url(#SVGwq5esEmc)" d="M11 9a1 1 0 0 1 1-1h6a1 1 0 1 1 0 2h-6a1 1 0 0 1-1-1" />
		<path fill="url(#SVGwq5esEmc)" d="M11 15a1 1 0 0 1 1-1h9a1 1 0 1 1 0 2h-9a1 1 0 0 1-1-1" />
		<path fill="url(#SVGwq5esEmc)" d="M11 18a1 1 0 0 1 1-1h6a1 1 0 1 1 0 2h-6a1 1 0 0 1-1-1" />
		<path fill="url(#SVGqhQTjbCf)" d="M4.25 4A2.25 2.25 0 0 0 2 6.25v2.5A2.25 2.25 0 0 0 4.25 11h2.5A2.25 2.25 0 0 0 9 8.75v-2.5A2.25 2.25 0 0 0 6.75 4zm0 9A2.25 2.25 0 0 0 2 15.25v2.5A2.25 2.25 0 0 0 4.25 20h2.5A2.25 2.25 0 0 0 9 17.75v-2.5A2.25 2.25 0 0 0 6.75 13z" />
		<defs>
			<linearGradient id="SVGwq5esEmc" x1="9.35" x2="20.9" y1="3" y2="19" gradientUnits="userSpaceOnUse">
				<stop stop-color="#36dff1" />
				<stop offset="1" stop-color="#0094f0" />
			</linearGradient>
			<linearGradient id="SVGqhQTjbCf" x1="3.665" x2="7.232" y1="6.127" y2="19.147" gradientUnits="userSpaceOnUse">
				<stop offset=".125" stop-color="#9c6cfe" />
				<stop offset="1" stop-color="#7a41dc" />
			</linearGradient>
		</defs>
	</g>
</svg>
