<svg xmlns="http://www.w3.org/2000/svg" width="1em" height="1em" viewBox="0 0 24 24">
	<g fill="none">
		<path fill="url(#SVGcSKN1nll)" d="M12.744 2.293a1 1 0 1 0-1.414 1.414l.689.689a8.787 8.787 0 1 0 8.805 8.787a1 1 0 1 0-2 0a6.787 6.787 0 1 1-6.805-6.787l-.69.689a1 1 0 0 0 1.415 1.414l2.396-2.396a1 1 0 0 0 0-1.414z" />
		<path fill="url(#SVGWUfNmdZP)" fill-rule="evenodd" d="M16.937 9.48a1 1 0 0 1 0 1.415l-4.792 4.792a1 1 0 0 1-1.414 0L8.934 13.89a1 1 0 1 1 1.414-1.414l1.09 1.09l4.085-4.085a1 1 0 0 1 1.414 0" clip-rule="evenodd" />
		<defs>
			<linearGradient id="SVGcSKN1nll" x1="3.25" x2="9.247" y1="3.175" y2="25.271" gradientUnits="userSpaceOnUse">
				<stop stop-color="#0fafff" />
				<stop offset="1" stop-color="#0067bf" />
			</linearGradient>
			<linearGradient id="SVGWUfNmdZP" x1="16.024" x2="7.892" y1="10.428" y2="14.47" gradientUnits="userSpaceOnUse">
				<stop stop-color="#42b870" />
				<stop offset="1" stop-color="#309c61" />
			</linearGradient>
		</defs>
	</g>
</svg>
