<svg xmlns="http://www.w3.org/2000/svg" width="1em" height="1em" viewBox="0 0 28 28">
	<g fill="none">
		<path fill="url(#SVGtN4pBdhY)" d="M25 21.75A3.25 3.25 0 0 1 21.75 25H6.25A3.25 3.25 0 0 1 3 21.75V9l11-1l11 1z" />
		<path fill="url(#SVGlH4OEXcs)" d="M25 21.75A3.25 3.25 0 0 1 21.75 25H6.25A3.25 3.25 0 0 1 3 21.75V9l11-1l11 1z" />
		<g filter="url(#SVGqRFnndiJ)">
			<path fill="url(#SVGd0M2kbKm)" d="M8.749 17.502a1.25 1.25 0 1 1 0 2.5a1.25 1.25 0 0 1 0-2.5m5.254 0a1.25 1.25 0 1 1 0 2.5a1.25 1.25 0 0 1 0-2.5m-5.254-5a1.25 1.25 0 1 1 0 2.5a1.25 1.25 0 0 1 0-2.5m5.254 0a1.25 1.25 0 1 1 0 2.5a1.25 1.25 0 0 1 0-2.5m5.255 0a1.25 1.25 0 1 1 0 2.5a1.25 1.25 0 0 1 0-2.5" />
		</g>
		<path fill="url(#SVGvu0mobrR)" d="M21.75 3A3.25 3.25 0 0 1 25 6.25V9H3V6.25A3.25 3.25 0 0 1 6.25 3z" />
		<defs>
			<linearGradient id="SVGtN4pBdhY" x1="17.972" x2="11.828" y1="27.088" y2="8.803" gradientUnits="userSpaceOnUse">
				<stop stop-color="#b3e0ff" />
				<stop offset="1" stop-color="#b3e0ff" />
			</linearGradient>
			<linearGradient id="SVGlH4OEXcs" x1="16.357" x2="19.402" y1="14.954" y2="28.885" gradientUnits="userSpaceOnUse">
				<stop stop-color="#dcf8ff" stop-opacity="0" />
				<stop offset="1" stop-color="#ff6ce8" stop-opacity=".7" />
			</linearGradient>
			<linearGradient id="SVGd0M2kbKm" x1="12.821" x2="15.099" y1="11.636" y2="26.649" gradientUnits="userSpaceOnUse">
				<stop stop-color="#0078d4" />
				<stop offset="1" stop-color="#0067bf" />
			</linearGradient>
			<linearGradient id="SVGvu0mobrR" x1="3" x2="21.722" y1="3" y2="-3.157" gradientUnits="userSpaceOnUse">
				<stop stop-color="#0094f0" />
				<stop offset="1" stop-color="#2764e7" />
			</linearGradient>
			<filter id="SVGqRFnndiJ" width="15.676" height="10.167" x="6.165" y="11.835" color-interpolation-filters="sRGB" filterUnits="userSpaceOnUse">
				<feFlood flood-opacity="0" result="BackgroundImageFix" />
				<feColorMatrix in="SourceAlpha" result="hardAlpha" values="0 0 0 0 0 0 0 0 0 0 0 0 0 0 0 0 0 0 127 0" />
				<feOffset dy=".667" />
				<feGaussianBlur stdDeviation=".667" />
				<feColorMatrix values="0 0 0 0 0.1242 0 0 0 0 0.323337 0 0 0 0 0.7958 0 0 0 0.32 0" />
				<feBlend in2="BackgroundImageFix" result="effect1_dropShadow_378174_9797" />
				<feBlend in="SourceGraphic" in2="effect1_dropShadow_378174_9797" result="shape" />
			</filter>
		</defs>
	</g>
</svg>
