<svg xmlns="http://www.w3.org/2000/svg" viewBox="460 580 840 840" width="32" height="32" style="fill-rule:evenodd;clip-rule:evenodd;stroke-linecap:round;stroke-linejoin:round;stroke-miterlimit:1.5;">
  <path d="M1200.642,831.186l0,338.921c0,93.528 -75.933,169.461 -169.461,169.461l-353.361,0c-93.528,0 -169.461,-75.933 -169.461,-169.461l0,-338.921c0,-93.528 75.933,-169.461 169.461,-169.461l353.361,0c93.528,0 169.461,75.933 169.461,169.461Z" style="fill:#3c2c50;stroke:#3c2c50;stroke-width:58.04px;"/>
  <g>
    <path d="M649.764,927.485c48.14,268.651 141.314,277.968 141.314,277.968c0,0 119.573,38.201 133.549,-265.545" style="fill:none;stroke:#d9f99d;stroke-width:58.04px;"/>
    <path d="M787.195,946.062c48.14,268.651 141.314,277.968 141.314,277.968c0,0 119.573,38.201 133.549,-265.545" style="fill:none;stroke:#d9f99d;stroke-width:58.04px;"/>
    <ellipse cx="649.764" cy="798.856" rx="20.964" ry="19.411" style="fill:#d9f99d;stroke:#d9f99d;stroke-width:58.04px;"/>
  </g>
</svg>
